<?xml version="1.0" encoding="utf-8"?>
<!-- Generator: Adobe Illustrator 17.1.0, SVG Export Plug-In . SVG Version: 6.00 Build 0)  -->
<!DOCTYPE svg PUBLIC "-//W3C//DTD SVG 1.1//EN" "http://www.w3.org/Graphics/SVG/1.1/DTD/svg11.dtd">
<svg version="1.1" id="Layer_1" xmlns="http://www.w3.org/2000/svg" xmlns:xlink="http://www.w3.org/1999/xlink" x="0px" y="0px"
	 viewBox="0 0 496.1 311.8" enable-background="new 0 0 496.1 311.8" xml:space="preserve">
<path d="M64.9,311.8H0V170.1h62.4c29.8,0,48.5,14.9,48.5,38.8c0,15.3-10.8,28.3-21.6,32c12.4,4.4,24.1,12.9,24.1,30.9
	C113.4,297.9,93.3,311.8,64.9,311.8z M66.8,198.4H28.3v28.3h38.4c10.9,0,18.3-5,18.3-14.2C85,203.4,77.6,198.4,66.8,198.4z
	 M67.7,255.1H28.3v28.3h39.4c11.1,0,17.3-6,17.3-14.2C85,261,78.8,255.1,67.7,255.1z M184.2,141.7c-33.4,0-56.6-22.7-56.6-57.2V0
	H156v83.4c0,18.8,11,30,28.2,30c17.2,0,28.4-11.2,28.4-30V0h28.3v84.5C240.9,119.1,217.6,141.7,184.2,141.7z M311.8,141.7
	c-33.4,0-56.6-22.7-56.6-57.2V0h28.5v83.4c0,18.8,11,30,28.2,30s28.4-11.2,28.4-30V0h28.3v84.5C368.5,119.1,345.2,141.7,311.8,141.7
	z M453.5,28.4V85h-28.3V28.4h-42.6V0h113.4v28.4H453.5z M453.5,170.1v42.5h-28.3v-42.5h-42.5v-28.3h42.5V99.2h28.3v42.5h42.5v28.3
	H453.5z M64.9,141.7H0V0h62.4c29.8,0,48.5,14.9,48.5,38.8c0,15.3-10.8,28.3-21.6,32c12.4,4.4,24.1,12.9,24.1,30.9
	C113.4,127.8,93.3,141.7,64.9,141.7z M66.8,28.3H28.3v28.3h38.4c10.9,0,18.3-5,18.3-14.2C85,33.3,77.6,28.3,66.8,28.3z M67.7,85
	H28.3v28.3h39.4c11.1,0,17.3-6,17.3-14.2C85,90.9,78.8,85,67.7,85z M184.2,311.8c-33.4,0-56.6-22.7-56.6-57.2v-84.5H156v83.4
	c0,18.8,11,30,28.2,30c17.2,0,28.4-11.2,28.4-30v-83.4h28.3v84.5C240.9,289.2,217.6,311.8,184.2,311.8z M311.8,311.8
	c-33.4,0-56.6-22.7-56.6-57.2v-84.5h28.5v83.4c0,18.8,11,30,28.2,30s28.4-11.2,28.4-30v-83.4h28.3v84.5
	C368.5,289.2,345.2,311.8,311.8,311.8z M453.5,255.2v56.7h-28.3l0-85h70.8v28.4H453.5z"/>
</svg>
