<?xml version="1.0" encoding="utf-8"?>
<!-- Generator: Adobe Illustrator 17.1.0, SVG Export Plug-In . SVG Version: 6.00 Build 0)  -->
<!DOCTYPE svg PUBLIC "-//W3C//DTD SVG 1.1//EN" "http://www.w3.org/Graphics/SVG/1.1/DTD/svg11.dtd">
<svg version="1.1" id="Layer_1" xmlns="http://www.w3.org/2000/svg" xmlns:xlink="http://www.w3.org/1999/xlink" x="0px" y="0px"
	 viewBox="0 0 609.4 425.2" enable-background="new 0 0 609.4 425.2" xml:space="preserve">
<path d="M141.7,269.3c0,9.2-7.4,14.2-18.3,14.2H85v-28.3h38.4C134.3,255.1,141.7,260.1,141.7,269.3z M124.4,311.8H85v28.3h39.4
	c11.1,0,17.3-6,17.3-14.2C141.7,317.7,135.5,311.8,124.4,311.8z M609.4,0v425.2H0V0H609.4z M170.1,328.5c0-17.9-11.7-26.5-24.1-30.9
	c10.8-3.8,21.6-16.7,21.6-32c0-23.9-18.7-38.8-48.5-38.8H56.7v141.7h64.9C150,368.5,170.1,354.6,170.1,328.5z M170.1,158.4
	c0-17.9-11.7-26.5-24.1-30.9c10.8-3.8,21.6-16.7,21.6-32c0-23.9-18.7-38.8-48.5-38.8H56.7v141.7h64.9
	C150,198.4,170.1,184.5,170.1,158.4z M297.6,226.8h-28.3v83.4c0,18.8-11.2,30-28.4,30c-17.2,0-28.2-11.2-28.2-30v-83.4h-28.5v84.5
	c0,34.6,23.2,57.2,56.6,57.2c33.4,0,56.7-22.7,56.7-57.2V226.8z M297.6,56.7h-28.3V140c0,18.8-11.2,30-28.4,30
	c-17.2,0-28.2-11.2-28.2-30V56.7h-28.5v84.5c0,34.6,23.2,57.2,56.6,57.2c33.4,0,56.7-22.7,56.7-57.2V56.7z M425.2,226.8h-28.3v83.4
	c0,18.8-11.2,30-28.4,30c-17.2,0-28.2-11.2-28.2-30v-83.4h-28.5v84.5c0,34.6,23.2,57.2,56.6,57.2c33.4,0,56.7-22.7,56.7-57.2V226.8z
	 M425.2,56.7h-28.3V140c0,18.8-11.2,30-28.4,30c-17.2,0-28.2-11.2-28.2-30V56.7h-28.5v84.5c0,34.6,23.2,57.2,56.6,57.2
	c33.4,0,56.7-22.7,56.7-57.2V56.7z M552.8,283.5H482l0,85h28.3v-56.7h42.5V283.5z M552.8,198.4h-42.5v-42.5h-28.3v42.5h-42.5v28.3
	h42.5v42.5h28.3v-42.5h42.5V198.4z M552.8,56.7H439.4v28.4H482v56.7h28.3V85.1h42.5V56.7z M124.4,141.7H85v28.3h39.4
	c11.1,0,17.3-6,17.3-14.2C141.7,147.6,135.5,141.7,124.4,141.7z M123.5,85H85v28.3h38.4c10.9,0,18.3-5,18.3-14.2
	C141.7,90,134.3,85,123.5,85z"/>
</svg>
